Patient4_TMGait_0pt4_01_left_15_EMG.mot
version=1
nRows=33
nColumns=33
inDegrees=no
endheader
time	1LAddLong	2LGlutMax	3LGlutMed	4LIliopsoas	5LSemiMemb	6LBicFemLong	7LRecFem	8LVastMed	9LVastLat	10LGasMed	11LTibAnt	12lTibPost	13LPeroneusLong	14LSol	15LExtDigLong	16LFlexDigLong	17RAddLong	18RGlutMax	19RGlutMed	20RIliopsoas	21RSemiMemb	22RBicFemLong	23RRecFem	24RVastMed	25RVastLat	26RGasMed	27RTibAnt	28RTibPost	29RPeroneusLong	30RSol	31RExtDigLong	32RFlexDigLong
19.555	0.019226	-0.025787	-0.1947	0.005493	0.040131	0.058746	0.22354	0.003204	0.012054	-0.25848	-0.025024	0.003204	-0.14618	-0.041962	0.044556	0.007477	-0.034027	-0.15182	0.009766	-0.11536	-0.14069	-0.19562	-0.32791	-0.13992	-0.003052	-0.003662	0.089264	-0.001678	0.002289	0.011902	-0.001068	-0.010681
19.556	0.009613	-0.034637	-0.18784	0.010986	0.066833	0.091553	0.23865	0.007324	0.008698	-0.003967	0.014343	0.002289	-0.062408	-0.12772	0.075989	0.008545	0.04715	-0.04303	-0.077209	0.001221	-0.18295	-0.27878	-0.16892	-0.37827	0.045013	-0.001526	0.062103	-0.000153	0.060883	0.017395	0.000153	-0.009155
19.557	0.013885	0.009003	-0.18753	0.005646	0.042419	0.035248	0.24155	0.00351	0.018463	-0.094604	0.03006	-0.012054	-0.05127	-0.089569	0.042877	0.005341	0.092163	-0.076599	-0.16953	0.1445	-0.25192	-0.25971	-0.10864	-0.31082	0.088043	-0.005951	0.055542	-0.004578	0.088654	0.033875	0.00061	-0.012665
19.558	0.006714	-0.005493	-0.20325	-0.009155	0.12955	0.058136	0.24323	0.009308	0.020905	-0.26215	0.038452	-0.007629	-0.05661	-0.072327	0.04837	-0.010376	0.068359	-0.028076	-0.078735	0.1857	-0.35523	-0.10681	-0.091858	-0.11154	-0.023041	-0.003662	0.082092	-0.004425	0.10422	0.007477	0.001678	-0.003357
19.559	0.002441	0.025787	-0.24445	0.001373	0.076904	0.066223	0.26093	0.005035	0.02655	-0.11017	0.019226	0	-0.045013	-0.25253	0.025177	-0.016327	0.012207	-0.054779	0.21027	0.062561	-0.44022	-0.006256	-0.052032	-0.081329	-0.02655	-0.001831	0.074615	-0.003815	0.059357	0.00824	0.000153	-0.005493
19.56	-0.001984	0.000305	-0.22049	0.004425	0.046539	0.11887	0.25665	0.005188	0.016632	0.033722	0.033112	0.014801	-0.030823	-0.14755	0.012207	-0.024414	0.00885	-0.10666	-0.007477	-0.022736	-0.26413	0.031433	0.016937	-0.066986	-0.000458	-0.001984	0.15518	-0.003357	-0.00412	-0.013275	-0.002136	-0.006714
19.561	-0.001068	-0.022888	-0.20477	0	-0.004578	0.1358	0.27039	0.012665	0.013733	-0.003052	0.010681	0.019531	0.025635	0.07431	0.022125	-0.019836	0.002136	-0.14084	0.006256	-0.079651	-0.1152	0.056915	0.073395	-0.10757	-0.091705	-0.003052	0.15274	-0.001373	-0.010834	0.01236	-0.004578	-0.00946
19.562	0.003052	0.015411	-0.19943	0.006256	-0.037537	0.097046	0.2507	0.012054	0.009613	0.057068	-0.006409	0.005188	0.023956	0.070343	0.072937	-0.003052	-0.010681	-0.1004	-0.11414	-0.41382	-0.006256	0.00946	0.1326	-0.12528	-0.077515	-0.002899	0.0354	-0.002136	-0.2771	0.010071	-0.000458	-0.00885
19.563	0.001984	0.018158	-0.18738	0.00946	-0.046234	0.029755	0.19959	0.014038	0.006104	0.17822	-0.046844	0.010376	0.01358	0.1796	0.006714	-0.000153	-0.009155	-0.11017	-0.16281	-0.35202	0.019226	0.10574	0.30868	-0.1619	-0.082855	-0.003357	-0.03418	-0.003662	-0.12192	0.003052	0.00061	0.002747
19.564	0.007477	-0.001831	-0.1622	0.005951	-0.003357	-0.010376	0.19241	0.009003	0.033722	0.11032	-0.063324	0.016174	-0.011902	0.23071	0.43381	0.011139	0.013123	-0.065155	-0.065918	-0.005951	-0.09491	0.036926	0.36072	-0.04425	-0.097504	0.002289	-0.10284	-0.005951	-0.17334	0.000916	-0.002136	0.003815
19.565	0.006561	0.002441	-0.18066	-0.01358	0.050201	-0.017395	0.18723	0.01358	0.072479	0.076752	-0.028992	0.005035	-0.005798	0.19272	0.60303	0.010834	-0.006714	-0.030212	-0.084534	0.34927	-0.038452	0.081635	0.35614	0.080566	-0.054016	-0.001221	-0.095367	-0.003357	0.98023	0.062714	0.001526	-0.00946
19.566	-0.004425	-0.019836	-0.22629	-0.007324	0.001984	-0.0383	0.19516	0.006561	0.078735	0.043182	0.051727	0.000763	0.028229	0.13184	0.31876	0.011749	-0.045776	-0.003662	-0.11688	0.42969	0.019836	0.081635	0.39032	0.079956	-0.019989	0.001526	-0.014343	-0.003052	0.38635	0.039368	-0.002441	-0.016632
19.567	-0.000458	-0.012665	-0.20523	0.000763	-0.012817	-0.11429	0.18662	0.005951	0.074768	0.002899	0.15656	-0.001678	-0.013733	0.20279	-0.47974	0.014648	-0.026093	-0.054321	-0.21133	0.3389	-0.44022	0.069733	0.4277	0.63263	-0.030975	-0.001678	0.008698	0.006104	-0.35858	0.011139	-0.001068	-0.014648
19.568	-0.008698	0.007324	-0.19638	0.014191	-0.007019	-0.14099	0.1828	0.007019	0.064392	-0.018005	0.13855	-0.001526	0.014038	0.20142	-0.5072	0.005035	0.003967	-0.11643	-0.2211	0.17502	-0.6369	-0.036774	0.42282	0.72479	-0.013123	0.003967	0.033264	-0.001526	-0.54886	0.001984	-0.002136	-0.019226
19.569	-0.010071	0.010834	-0.2034	-0.005493	0.010681	-0.15564	0.18677	0.003815	0.057983	0.021057	0.15427	0.002136	-0.084381	0.13458	-0.41489	0.007477	0.055542	-0.032654	-0.16571	0.049744	-0.41596	-0.16541	0.46616	0.54321	-0.065613	-0.001373	0.040283	0.001678	-0.28793	-0.004883	-0.001678	-0.018616
19.57	-0.003357	-0.009155	-0.2243	-0.013733	0.023804	-0.036163	0.1564	0.009308	0.062256	0.009766	0.1059	0.001068	-0.010071	0.089111	-0.12421	-0.00946	0.11047	-0.003052	-0.22446	-0.1181	-0.10727	-0.33096	0.42893	0.14877	0.081177	0.000153	-0.046997	0.001678	0.47333	0.000458	-0.002594	-0.012817
19.571	-0.000916	-0.016785	-0.25604	-0.003967	0.003052	0.10681	0.15656	-0.002441	0.059509	-0.016174	0.011444	-0.003204	0.055084	0.066681	-0.27985	-0.005188	0.1709	-0.033875	-0.16235	-0.089569	-0.24384	-0.46448	0.31418	-0.35629	0.31342	0.015717	-0.077057	-0.002594	0.24323	-0.006256	-0.002441	-0.009766
19.572	0.012512	-0.008698	-0.29159	-0.007935	0.006714	0.17639	0.11383	-0.000458	0.064087	-0.002594	-0.18539	-0.002747	0.026093	0.06546	-0.19455	0.009613	0.14267	-0.036621	-0.20828	-0.15717	-0.18906	-0.38864	0.090485	-0.76599	0.28091	-0.004272	-0.006409	-0.002441	0.11459	0.034485	-0.000458	0.002136
19.573	0.003815	0.007629	-0.27756	0.019226	-0.085297	0.12543	0.10788	-0.000305	0.058441	0.034027	-0.074921	-0.000305	0.018463	-0.053253	-0.18005	-0.000916	0.059357	0.068054	-0.31891	-0.18539	-0.47775	0.012512	-0.078583	-0.88135	0.22476	-0.011597	0.013428	-0.001678	0.12116	0.04303	0.001068	-0.011902
19.574	-0.005798	0.027924	-0.23361	0.015106	-0.13702	-0.067291	0.11292	-0.000458	0.059357	0.023346	-0.017548	0.000305	-0.006256	-0.016785	-0.19302	0.010529	-0.12787	0.063477	-0.37308	-0.010376	-0.38208	0.41275	-0.11322	-0.65552	0.13687	-0.00885	0.033722	-0.001526	0.28793	0.053864	0.008087	-0.004272
19.575	-0.005493	-0.023956	-0.34378	0.008545	-0.065308	-0.15411	0.11108	0.000153	0.06424	-0.02182	-0.012665	-0.001373	-0.075989	-0.023346	-0.077362	-0.002441	-0.18677	0.10162	-0.49194	0.057526	0.10757	0.33157	-0.074463	-0.48782	0.027618	-0.00061	0.016479	-0.002441	0.45242	0.038605	-0.00061	-0.005341
19.576	0.007019	-0.027313	-0.31296	0.011444	0.091095	-0.064545	0.098114	0.000153	0.053864	-0.027313	-0.016479	-0.003357	-0.05188	0.008698	0.046387	-0.00824	-0.15152	0.087433	-0.65887	0.27145	0.050507	0.17761	-0.18463	-0.028992	-0.04425	-0.00473	0.019531	-0.003357	0.48416	0.081024	0	-0.009613
19.577	0.012512	-0.052338	-0.30014	-0.002441	0.1001	0.028839	0.090027	0.002594	0.012665	-0.024261	-0.056305	0.000916	0.13153	0.0737	0.056763	-0.010986	-0.10712	0.037994	-0.61325	0.26764	0.11795	0.13382	-0.466	0.36911	0.12573	0.000153	-0.016785	-0.002594	0.51117	-0.006714	0	-0.006866
19.578	0.017853	-0.020294	-0.28595	-0.021515	0.038452	0.02655	0.077972	0.007324	0.040588	-0.019379	-0.084534	0.001678	-0.028992	0.085907	0.087585	-0.019684	-0.034637	-0.016632	-0.089722	0.18616	0.32196	0.022583	-0.47623	0.34988	0.49027	-0.001526	-0.00946	-0.002899	0.32166	-0.044403	-0.001678	-0.003357
19.579	0.015411	-0.023041	-0.33508	-0.005798	0.039978	-0.040741	0.077209	0.003357	0.039978	-0.084534	-0.057373	-0.00824	-0.008087	-0.020142	0.13336	-0.005188	0.013428	-0.039673	0.85083	-0.076294	0.24475	-0.025635	-0.32944	0.34515	0.56824	-0.001068	0.020447	-0.003204	-0.039825	0.036316	-0.005493	-0.011444
19.58	0.015106	-0.014648	-0.24078	-0.02533	0.040894	-0.054474	0.072937	0.001068	0.035706	-0.029602	-0.015564	0.016022	-0.040131	0.040894	0.12283	0.003357	0.027466	-0.039673	1.0675	-0.24231	0.065002	-0.020599	0.000153	0.34515	0.62576	-0.00061	0.010529	0.001221	-0.031128	0.009003	-0.001068	-0.017242
19.581	0.01297	-0.023651	-0.1561	-0.018616	0.012512	0.010529	0.081635	0.005493	0.049744	0.13397	0.036011	0.00473	-0.098724	0.062866	0.11581	0.010681	-0.033264	-0.001373	0.5188	-0.096893	0.015106	-0.056305	0.14404	0.25085	0.39627	0.003815	-0.000763	-0.001984	-0.35904	-0.030975	-0.001526	-0.004425
19.582	0.005341	-0.026703	-0.26428	0.000763	0.024261	0.048523	0.075989	0.00412	0.042572	0.42053	0.086212	-0.006409	-0.16983	0.034332	0.081329	0.020599	-0.024567	0.01236	0.001831	-0.019073	-0.11108	-0.026093	0.090637	0.20447	0.055695	0.007324	-0.007629	-0.003357	-0.45624	-0.017395	-0.002136	0.004272
19.583	0.002594	-0.051422	-0.27679	0.009766	0.073853	0.13672	0.079193	0.00061	0.023956	0.79361	0.073395	-0.012817	-0.096436	0.013428	0.08606	-0.5368	0.010986	0.014038	0.015411	-0.072479	0.00885	-0.035095	-0.215	0.036774	-0.35339	-0.003967	0.026703	-0.001831	-0.075989	-0.005341	-0.001221	-0.007019
19.584	0.003357	-0.027161	-0.27817	0.02533	0.051422	0.14816	0.070038	0.005493	0.03479	1.035	0.049438	-0.01297	-0.036469	-0.16876	0.080109	-0.027313	0.005341	0.15274	-0.031738	-0.028687	0.43976	0.004425	-0.33722	-0.22446	-0.55023	-0.005493	0.001984	-0.005035	0.094604	0.03006	0.003662	-0.007629
19.585	0.002747	-0.011444	-0.28168	0.012512	0.048218	-0.046539	0.049438	-0.006409	0.045624	1.0449	0.033112	-0.020142	0.005188	-0.28275	0.078278	0.8847	0.012512	0.20523	0.050049	0.051117	0.23941	0.002441	-0.11475	-0.10559	-0.67429	-0.008545	-0.010223	-0.003815	0.080719	0.056763	0.002136	-0.002747
19.586	0.009613	-0.000763	-0.27603	0.000458	0.002289	-0.14587	0.018463	0.000153	0.036621	0.43778	0.007629	-0.015106	0.088806	-0.28458	0.061951	-0.32837	-0.012054	0.18494	0.18723	0.09201	0.13229	-0.048676	-0.10757	0.049591	-0.57373	-0.00885	-0.012665	-0.001068	0.077515	0.046082	0.000153	-0.014038
19.587	-0.003815	0.054474	-0.3624	-0.007324	-0.03067	-0.10422	0.022125	0.00412	0.015411	0.095215	-0.025177	-0.002289	0.12802	-0.32898	0.068359	-0.062714	-0.015106	0.29465	0.16678	0.11887	0.027924	-0.067291	-0.078583	0.078583	-0.34622	-0.006561	0.015564	-0.001526	0.030518	0.004425	-0.004578	-0.011292
